<svg xmlns="http://www.w3.org/2000/svg" xmlns:xlink="http://www.w3.org/1999/xlink" version="1.1" width="100" height="100" viewBox="0 0 100 100" xml:space="preserve">
<desc>Created with Fabric.js 3.5.0</desc>
<defs>
</defs>
<rect x="0" y="0" width="100%" height="100%" fill="rgba(255,255,255,0)"/>
<g transform="matrix(1 0 0 1 50.5 50.5)" id="551658">
<circle style="stroke: none; stroke-width: 1; stroke-dasharray: none; stroke-linecap: butt; stroke-dashoffset: 0; stroke-linejoin: miter; stroke-miterlimit: 4; is-custom-font: none; font-file-url: none; fill: rgb(235,87,87); fill-rule: nonzero; opacity: 0.1;" vector-effect="non-scaling-stroke" cx="0" cy="0" r="50"/>
</g>
<g transform="matrix(1 0 0 1 49.1803 50.5)" id="124275">
<g style="" vector-effect="non-scaling-stroke">
		<g transform="matrix(1 0 0 1 -0.2903 0.0415)">
<path style="stroke: none; stroke-width: 1; stroke-dasharray: none; stroke-linecap: butt; stroke-dashoffset: 0; stroke-linejoin: miter; stroke-miterlimit: 4; is-custom-font: none; font-file-url: none; fill: rgb(255,111,10); fill-rule: nonzero; opacity: 1;" transform=" translate(-37.2097, -37.0416)" d="M 60.3131 4.64014 L 36.2052 30.2563 L 60.3131 44.1456 L 14.1063 69.443 L 38.2142 44.1456 L 14.1063 30.2563 L 60.3131 4.64014 Z" stroke-linecap="round"/>
</g>
		<g transform="matrix(1 0 0 1 -0.2905 0.042)">
<path style="stroke: none; stroke-width: 1; stroke-dasharray: none; stroke-linecap: butt; stroke-dashoffset: 0; stroke-linejoin: miter; stroke-miterlimit: 4; is-custom-font: none; font-file-url: none; fill: rgb(254,182,3); fill-rule: nonzero; opacity: 1;" transform=" translate(-37.2095, -37.042)" d="M 14.1072 71.0604 C 13.7872 71.0605 13.4742 70.9683 13.2068 70.795 C 12.9393 70.6217 12.7291 70.375 12.6021 70.0853 C 12.475 69.7955 12.4366 69.4755 12.4917 69.1645 C 12.5468 68.8535 12.693 68.5652 12.9121 68.3352 L 35.6097 44.5178 L 13.2797 31.6529 C 13.0305 31.5093 12.8241 31.3032 12.6815 31.0557 C 12.5388 30.8081 12.4649 30.5278 12.4673 30.243 C 12.4697 29.9582 12.5483 29.6791 12.6951 29.4339 C 12.8419 29.1887 13.0517 28.9861 13.3034 28.8466 L 59.5102 3.23043 C 59.8508 3.04185 60.2486 2.97952 60.6317 3.05465 C 61.0149 3.12978 61.3582 3.33744 61.5999 3.64022 C 61.8417 3.94299 61.9658 4.32098 61.9501 4.7061 C 61.9344 5.09121 61.7798 5.45813 61.5142 5.74076 L 38.7983 29.8777 L 61.1394 42.7491 C 61.3892 42.8931 61.596 43.0998 61.7387 43.3482 C 61.8813 43.5966 61.9548 43.8778 61.9517 44.1633 C 61.9485 44.4488 61.8688 44.7284 61.7207 44.9737 C 61.5725 45.2189 61.3612 45.4211 61.1082 45.5597 L 14.9014 70.8571 C 14.6585 70.9905 14.3852 71.0604 14.1072 71.0604 Z M 17.4035 30.2834 L 39.0405 42.7491 C 39.2534 42.8716 39.4355 43.04 39.5733 43.2417 C 39.7111 43.4433 39.801 43.6731 39.8364 43.9138 C 39.8717 44.1545 39.8515 44.3999 39.7774 44.6319 C 39.7032 44.8638 39.577 45.0763 39.4081 45.2534 L 22.4955 63.0004 L 57.0003 44.1096 L 35.3786 31.6529 C 35.1666 31.5307 34.985 31.363 34.8475 31.1623 C 34.7099 30.9615 34.6198 30.7328 34.5839 30.4931 C 34.5479 30.2534 34.567 30.0088 34.6397 29.7774 C 34.7124 29.5459 34.8369 29.3336 35.004 29.156 L 51.9858 11.1114 L 17.4035 30.2834 Z" stroke-linecap="round"/>
</g>
</g>
</g>
</svg>