<svg xmlns="http://www.w3.org/2000/svg" xmlns:xlink="http://www.w3.org/1999/xlink" version="1.1" width="100" height="100" viewBox="0 0 100 100" xml:space="preserve">
<desc>Created with Fabric.js 3.5.0</desc>
<defs>
</defs>
<rect x="0" y="0" width="100%" height="100%" fill="rgba(255,255,255,0)"/>
<g transform="matrix(1 0 0 1 49.1803 50.5)" id="209182">
<g style="" vector-effect="non-scaling-stroke">
		<g transform="matrix(1 0 0 1 -24.068 -10.8174)">
<path style="stroke: none; stroke-width: 1; stroke-dasharray: none; stroke-linecap: butt; stroke-dashoffset: 0; stroke-linejoin: miter; stroke-miterlimit: 4; is-custom-font: none; font-file-url: none; fill: rgb(255,111,10); fill-rule: nonzero; opacity: 1;" transform=" translate(-9.432, -23.1825)" d="M 14.6641 28.4843 C 16.1993 28.4843 17.4548 27.2287 17.4548 25.6939 V 20.671 C 17.4548 19.136 16.1993 17.8806 14.6641 17.8806 H 4.19968 C 2.6647 17.8807 1.40924 19.1361 1.40924 20.6711 V 25.694 C 1.40924 27.2289 2.6647 28.4845 4.19968 28.4845 H 14.664 L 14.6641 28.4843 Z" stroke-linecap="round"/>
</g>
		<g transform="matrix(1 0 0 1 -8.536 -10.8174)">
<path style="stroke: none; stroke-width: 1; stroke-dasharray: none; stroke-linecap: butt; stroke-dashoffset: 0; stroke-linejoin: miter; stroke-miterlimit: 4; is-custom-font: none; font-file-url: none; fill: rgb(255,111,10); fill-rule: nonzero; opacity: 1;" transform=" translate(-24.9641, -23.1826)" d="M 17.4547 25.694 C 17.4547 27.2288 18.7101 28.4844 20.2451 28.4844 L 24.4365 28.4842 C 26.2039 25.7102 28.3395 23.01 30.5283 20.4543 C 31.1072 19.7781 31.8074 18.9029 32.4734 17.8808 H 20.2451 C 18.7101 17.8808 17.4547 19.1363 17.4547 20.6712 V 25.694 Z" stroke-linecap="round"/>
</g>
		<g transform="matrix(1 0 0 1 10.8096 -10.8175)">
<path style="stroke: none; stroke-width: 1; stroke-dasharray: none; stroke-linecap: butt; stroke-dashoffset: 0; stroke-linejoin: miter; stroke-miterlimit: 4; is-custom-font: none; font-file-url: none; fill: rgb(255,111,10); fill-rule: nonzero; opacity: 1;" transform=" translate(-44.3096, -23.1825)" d="M 40.1162 22.2249 C 39.642 24.7387 39.3021 26.7955 39.074 28.4843 H 46.7548 C 48.2897 28.4843 49.5452 27.2287 49.5452 25.6939 V 20.671 C 49.5452 19.136 48.2897 17.8806 46.7548 17.8806 H 40.3934 C 40.4872 19.1941 40.4155 20.6404 40.1162 22.2249 Z" stroke-linecap="round"/>
</g>
		<g transform="matrix(1 0 0 1 24.0679 -10.8174)">
<path style="stroke: none; stroke-width: 1; stroke-dasharray: none; stroke-linecap: butt; stroke-dashoffset: 0; stroke-linejoin: miter; stroke-miterlimit: 4; is-custom-font: none; font-file-url: none; fill: rgb(255,111,10); fill-rule: nonzero; opacity: 1;" transform=" translate(-57.5679, -23.1826)" d="M 49.5452 20.6711 V 25.694 C 49.5452 27.2289 50.8007 28.4845 52.3357 28.4845 H 62.7999 C 64.3352 28.4845 65.5906 27.2289 65.5906 25.694 V 20.6711 C 65.5906 19.1361 64.3352 17.8807 62.7999 17.8807 H 52.3357 C 50.8007 17.8807 49.5452 19.1361 49.5452 20.6711 Z" stroke-linecap="round"/>
</g>
		<g transform="matrix(1 0 0 1 18.6429 -0.2138)">
<path style="stroke: none; stroke-width: 1; stroke-dasharray: none; stroke-linecap: butt; stroke-dashoffset: 0; stroke-linejoin: miter; stroke-miterlimit: 4; is-custom-font: none; font-file-url: none; fill: rgb(255,111,10); fill-rule: nonzero; opacity: 1;" transform=" translate(-52.1428, -33.7861)" d="M 62.7998 28.4843 H 52.3356 H 46.7548 H 39.074 C 38.3471 33.8706 38.7555 35.5223 39.5484 36.3632 C 39.5484 36.3632 40.1161 31.7978 45.7002 29.9567 C 45.7002 29.9567 45.214 35.1081 47.1628 39.088 H 52.3354 H 62.7997 C 64.3347 39.088 65.5904 37.8324 65.5904 36.2975 V 31.275 C 65.5905 29.7399 64.335 28.4843 62.7998 28.4843 Z" stroke-linecap="round"/>
</g>
		<g transform="matrix(1 0 0 1 -20.5769 1.1814)">
<path style="stroke: none; stroke-width: 1; stroke-dasharray: none; stroke-linecap: butt; stroke-dashoffset: 0; stroke-linejoin: miter; stroke-miterlimit: 4; is-custom-font: none; font-file-url: none; fill: rgb(255,111,10); fill-rule: nonzero; opacity: 1;" transform=" translate(-12.9231, -35.1814)" d="M 20.1522 39.0897 C 20.5936 35.5336 22.2272 31.9514 24.437 28.4843 H 20.245 H 14.664 H 4.19968 C 2.6647 28.4843 1.40924 29.7399 1.40924 31.275 V 36.2977 C 1.40924 37.8325 2.6647 39.0881 4.19968 39.0881 H 14.664 C 16.1992 39.0881 17.4547 40.3438 17.4547 41.8785 C 17.4547 40.3747 18.6596 39.1394 20.1522 39.0897 Z" stroke-linecap="round"/>
</g>
		<g transform="matrix(1 0 0 1 -24.0681 10.3898)">
<path style="stroke: none; stroke-width: 1; stroke-dasharray: none; stroke-linecap: butt; stroke-dashoffset: 0; stroke-linejoin: miter; stroke-miterlimit: 4; is-custom-font: none; font-file-url: none; fill: rgb(255,111,10); fill-rule: nonzero; opacity: 1;" transform=" translate(-9.432, -44.3898)" d="M 17.4547 46.9013 V 41.8783 C 17.4547 40.3437 16.1992 39.0878 14.664 39.0878 H 4.19968 C 2.6647 39.0878 1.40924 40.3436 1.40924 41.8783 V 46.9012 C 1.40924 48.436 2.6647 49.6919 4.19968 49.6919 H 14.664 C 16.1991 49.6919 17.4547 48.436 17.4547 46.9013 Z" stroke-linecap="round"/>
</g>
		<g transform="matrix(1 0 0 1 -13.2047 10.3907)">
<path style="stroke: none; stroke-width: 1; stroke-dasharray: none; stroke-linecap: butt; stroke-dashoffset: 0; stroke-linejoin: miter; stroke-miterlimit: 4; is-custom-font: none; font-file-url: none; fill: rgb(255,111,10); fill-rule: nonzero; opacity: 1;" transform=" translate(-20.2953, -44.3907)" d="M 17.4547 41.8783 V 46.9012 C 17.4547 48.436 18.7101 49.6919 20.2451 49.6919 H 23.1359 C 20.4839 46.2818 19.704 42.6989 20.1523 39.0895 C 18.6596 39.1394 17.4547 40.3747 17.4547 41.8783 Z" stroke-linecap="round"/>
</g>
		<g transform="matrix(1 0 0 1 24.0679 10.3898)">
<path style="stroke: none; stroke-width: 1; stroke-dasharray: none; stroke-linecap: butt; stroke-dashoffset: 0; stroke-linejoin: miter; stroke-miterlimit: 4; is-custom-font: none; font-file-url: none; fill: rgb(255,111,10); fill-rule: nonzero; opacity: 1;" transform=" translate(-57.5679, -44.3898)" d="M 49.5452 41.8783 V 46.9012 C 49.5452 48.436 50.8007 49.6919 52.3357 49.6919 H 62.7999 C 64.3352 49.6919 65.5906 48.436 65.5906 46.9012 V 41.8783 C 65.5906 40.3437 64.3352 39.0878 62.7999 39.0878 H 52.3357 C 50.8007 39.088 49.5452 40.3437 49.5452 41.8783 Z" stroke-linecap="round"/>
</g>
		<g transform="matrix(1 0 0 1 16.0452 20.9938)">
<path style="stroke: none; stroke-width: 1; stroke-dasharray: none; stroke-linecap: butt; stroke-dashoffset: 0; stroke-linejoin: miter; stroke-miterlimit: 4; is-custom-font: none; font-file-url: none; fill: rgb(255,111,10); fill-rule: nonzero; opacity: 1;" transform=" translate(-49.5452, -54.9938)" d="M 62.7998 49.6919 H 52.3355 H 47.3798 C 45.3717 52.5567 41.2314 55.393 33.4999 57.505 C 33.4999 59.0401 34.7554 60.2957 36.2904 60.2957 H 62.7999 C 64.3352 60.2957 65.5906 59.0401 65.5906 57.505 V 52.4823 C 65.5905 50.9475 64.3349 49.6919 62.7998 49.6919 Z" stroke-linecap="round"/>
</g>
		<g transform="matrix(1 0 0 1 -16.0456 20.9938)">
<path style="stroke: none; stroke-width: 1; stroke-dasharray: none; stroke-linecap: butt; stroke-dashoffset: 0; stroke-linejoin: miter; stroke-miterlimit: 4; is-custom-font: none; font-file-url: none; fill: rgb(255,111,10); fill-rule: nonzero; opacity: 1;" transform=" translate(-17.4544, -54.9938)" d="M 33.4996 57.505 C 28.6111 55.0631 25.2681 52.4335 23.1358 49.6919 H 20.245 H 14.664 H 4.19968 C 2.6647 49.6919 1.40924 50.9471 1.40924 52.4823 V 57.505 C 1.40924 59.0401 2.6647 60.2957 4.19968 60.2957 H 30.7093 C 32.2445 60.2957 33.4998 59.0401 33.4996 57.505 Z" stroke-linecap="round"/>
</g>
		<g transform="matrix(1 0 0 1 1.0205 -1.6093)">
<path style="stroke: none; stroke-width: 1; stroke-dasharray: none; stroke-linecap: butt; stroke-dashoffset: 0; stroke-linejoin: miter; stroke-miterlimit: 4; is-custom-font: none; font-file-url: none; fill: rgb(237,162,63); fill-rule: nonzero; opacity: 1;" transform=" translate(-34.5204, -32.3906)" d="M 23.1358 49.6919 C 25.2681 52.4335 28.6112 55.0631 33.4998 57.5049 C 41.2312 55.393 45.3716 52.5568 47.3799 49.6919 C 49.9933 45.9636 48.996 42.1876 47.6046 39.8975 C 47.4451 39.6346 47.2978 39.3645 47.1628 39.088 C 45.2139 35.1083 45.7002 29.9567 45.7002 29.9567 C 40.116 31.7978 39.5484 36.3632 39.5484 36.3632 C 38.7555 35.5224 38.3471 33.8706 39.074 28.4843 C 39.3021 26.7953 39.6418 24.7387 40.1162 22.2249 C 40.4153 20.6404 40.4873 19.1941 40.3924 17.8808 C 39.8647 10.4649 34.0588 7.27637 34.0588 7.27637 C 35.8596 11.2099 34.2907 15.0925 32.4732 17.8807 C 31.8073 18.9028 31.1073 19.778 30.5281 20.4541 C 28.3395 23.0097 26.2036 25.7101 24.437 28.4842 C 22.2271 31.9513 20.5936 35.5333 20.1522 39.0895 C 19.704 42.699 20.4838 46.2818 23.1358 49.6919 Z" stroke-linecap="round"/>
</g>
		<g transform="matrix(1 0 0 1 -0.0001 -0.214)">
<path style="stroke: none; stroke-width: 1; stroke-dasharray: none; stroke-linecap: butt; stroke-dashoffset: 0; stroke-linejoin: miter; stroke-miterlimit: 4; is-custom-font: none; font-file-url: none; fill: rgb(0,0,3); fill-rule: nonzero; opacity: 1;" transform=" translate(-33.4999, -33.7861)" d="M 66.9999 20.6711 C 66.9999 18.3554 65.1159 16.4715 62.7998 16.4715 H 52.3355 C 51.2651 16.4715 50.2877 16.8745 49.5451 17.5361 C 48.8026 16.8746 47.8251 16.4715 46.7547 16.4715 H 41.6455 C 41.203 13.6384 40.0679 11.4772 38.9719 9.97235 C 37.0462 7.32769 34.8304 6.09251 34.7369 6.04121 C 34.2042 5.74861 33.5439 5.83053 33.099 6.2443 C 32.6539 6.65808 32.5241 7.31041 32.7771 7.86303 C 33.9507 10.4271 33.5846 13.3125 31.6957 16.4713 H 20.2447 C 19.1743 16.4713 18.1969 16.8744 17.4543 17.536 C 16.7116 16.8745 15.7341 16.4713 14.6635 16.4713 H 4.19966 C 1.88398 16.4713 0 18.3553 0 20.6711 V 25.694 C 0 26.7645 0.403046 27.742 1.0648 28.4845 C 0.403046 29.227 0 30.2045 0 31.2749 V 36.2975 C 0 37.368 0.403046 38.3455 1.06467 39.088 C 0.403046 39.8303 0 40.808 0 41.8783 V 46.9012 C 0 47.9716 0.403046 48.9493 1.0648 49.6918 C 0.403046 50.4344 0 51.4119 0 52.4823 V 57.505 C 0 59.8208 1.88398 61.705 4.19966 61.705 H 30.7092 C 31.7468 61.705 32.728 61.328 33.499 60.6396 C 34.2418 61.3016 35.2196 61.705 36.2902 61.705 H 62.7998 C 65.1158 61.705 66.9999 59.8209 66.9999 57.505 V 52.4823 C 66.9999 51.4119 66.5968 50.4344 65.9351 49.6919 C 66.5966 48.9493 66.9999 47.9717 66.9999 46.9013 V 41.8784 C 66.9999 40.808 66.5968 39.8305 65.9351 39.088 C 66.5966 38.3455 66.9999 37.368 66.9999 36.2975 V 31.2748 C 66.9999 30.2043 66.5968 29.2267 65.9351 28.4842 C 66.5966 27.7417 66.9999 26.7641 66.9999 25.6938 V 20.6709 V 20.6711 Z M 52.3355 19.29 H 62.7998 C 63.5614 19.29 64.1812 19.9094 64.1812 20.6711 V 25.694 C 64.1812 26.4555 63.5617 27.075 62.7998 27.075 H 52.3355 C 51.5741 27.075 50.9544 26.4556 50.9544 25.694 V 20.6711 C 50.9546 19.9095 51.5739 19.29 52.3355 19.29 Z M 64.1812 31.2749 V 36.2975 C 64.1812 37.059 63.5617 37.6786 62.7998 37.6786 H 52.3355 H 48.0834 C 46.7434 34.2461 47.0992 30.1353 47.1035 30.0893 C 47.1097 30.0238 47.1103 29.9586 47.1073 29.8937 H 52.3355 H 62.7998 C 63.5614 29.8937 64.1812 30.5133 64.1812 31.2749 Z M 64.1812 41.8783 V 46.9012 C 64.1812 47.6628 63.5617 48.2825 62.7998 48.2825 H 52.3355 C 51.5741 48.2825 50.9544 47.663 50.9544 46.9012 V 41.8783 C 50.9544 41.1168 51.5739 40.4972 52.3355 40.4972 H 62.7998 C 63.5614 40.4973 64.1812 41.1168 64.1812 41.8783 Z M 40.3232 29.8937 H 42.5237 C 41.5177 30.5306 40.7397 31.2524 40.1399 31.9746 C 40.174 31.3617 40.2358 30.6663 40.3232 29.8937 Z M 48.1359 20.6711 V 25.694 C 48.1359 26.4555 47.5164 27.0751 46.7548 27.0751 H 40.706 C 40.9159 25.7127 41.1801 24.1861 41.5009 22.4864 C 41.7144 21.356 41.8183 20.2912 41.8357 19.2902 H 46.7547 C 47.5163 19.29 48.1359 19.9095 48.1359 20.6711 Z M 36.2578 11.0759 C 38.0002 13.2163 39.7129 16.7633 38.7313 21.9635 C 38.2539 24.4918 37.9069 26.586 37.673 28.3327 C 37.6728 28.3358 37.6722 28.3387 37.6717 28.3418 C 36.8919 34.1719 37.3785 36.1158 38.5228 37.33 C 38.8972 37.7273 39.4665 37.8788 39.9856 37.7091 C 40.5046 37.5394 40.8778 37.0917 40.9453 36.55 C 40.9636 36.4221 41.3661 33.8617 44.2456 32.1485 C 44.3027 34.1357 44.6288 37.0682 45.8632 39.6339 C 45.8859 39.6878 45.913 39.7395 45.9419 39.7899 C 46.0841 40.0748 46.2342 40.3563 46.4003 40.6296 C 47.009 41.6314 48.2968 44.283 47.1101 47.2627 C 45.6634 50.8949 41.0133 53.9108 33.6483 56.0007 C 26.6733 52.4198 22.6482 48.1874 21.6828 43.4164 C 20.7451 38.7822 22.683 33.8751 25.5776 29.3103 C 25.6153 29.2585 25.6502 29.2047 25.6803 29.1479 C 27.4518 26.3806 29.5679 23.7425 31.5986 21.3711 C 32.3867 20.4509 33.0537 19.5613 33.6163 18.7026 C 33.643 18.6658 33.6674 18.6279 33.6902 18.5886 C 35.548 15.7158 36.2249 13.1965 36.2578 11.0759 Z M 2.81871 46.9013 V 41.8783 C 2.81871 41.1168 3.43819 40.4972 4.19979 40.4972 H 14.6641 C 15.4257 40.4972 16.0454 41.1167 16.0454 41.8783 V 46.9012 C 16.0454 47.6628 15.4259 48.2825 14.6641 48.2825 H 4.19966 C 3.43819 48.2825 2.81871 47.663 2.81871 46.9013 Z M 2.81871 36.2975 V 31.2749 C 2.81871 30.5133 3.43819 29.8936 4.19979 29.8936 H 14.6641 H 20.2451 H 21.9572 C 20.5573 32.4126 19.4742 35.0299 18.958 37.6785 H 14.6641 H 4.19966 C 3.43819 37.6786 2.81871 37.0591 2.81871 36.2975 Z M 18.864 46.9013 V 43.676 C 18.8821 43.7759 18.9 43.8756 18.9201 43.9754 C 19.2211 45.4628 19.7585 46.9017 20.522 48.2827 H 20.245 C 19.4835 48.2825 18.864 47.663 18.864 46.9013 Z M 20.2451 19.29 H 29.6658 C 29.5968 19.3725 29.5286 19.4548 29.4578 19.5375 C 27.4877 21.838 25.4454 24.3809 23.672 27.075 H 20.2452 C 19.4837 27.075 18.8641 26.4556 18.8641 25.694 V 20.6711 C 18.864 19.9095 19.4835 19.29 20.2451 19.29 Z M 2.81871 20.6711 C 2.81871 19.9097 3.43819 19.2902 4.19979 19.2902 H 14.6641 C 15.4257 19.2902 16.0454 19.9095 16.0454 20.6711 V 25.694 C 16.0454 26.4555 15.4259 27.0751 14.6641 27.0751 H 4.19966 C 3.43819 27.0751 2.81857 26.4558 2.81857 25.694 V 20.6711 H 2.81871 Z M 30.7092 58.8863 H 4.19966 C 3.43819 58.8863 2.81857 58.2668 2.81857 57.505 V 52.4823 C 2.81857 51.7209 3.43806 51.1012 4.19966 51.1012 H 14.6639 H 20.245 H 22.4659 C 22.669 51.3442 22.8778 51.5855 23.0969 51.8238 C 25.2296 54.1446 28.1792 56.3033 31.8701 58.2507 C 31.6241 58.6324 31.1962 58.8863 30.7092 58.8863 Z M 64.1812 57.505 C 64.1812 58.2666 63.5617 58.8863 62.7998 58.8863 H 36.2902 C 35.8971 58.8863 35.5429 58.7204 35.2911 58.456 C 41.3735 56.6234 45.6582 54.1588 48.0877 51.1014 H 52.3355 H 62.7998 C 63.5614 51.1014 64.1812 51.7209 64.1812 52.4825 V 57.505 Z" stroke-linecap="round"/>
</g>
		<g transform="matrix(1 0 0 1 -4.029 -3.0275)">
<path style="stroke: none; stroke-width: 1; stroke-dasharray: none; stroke-linecap: butt; stroke-dashoffset: 0; stroke-linejoin: miter; stroke-miterlimit: 4; is-custom-font: none; font-file-url: none; fill: rgb(0,0,3); fill-rule: nonzero; opacity: 1;" transform=" translate(-29.471, -30.9725)" d="M 30.2746 29.755 C 29.6245 29.3261 28.7507 29.5054 28.322 30.155 L 28.2622 30.2457 C 27.8379 30.8983 28.0232 31.7711 28.6758 32.1954 C 28.9132 32.3495 29.1792 32.4233 29.4425 32.4233 C 29.9038 32.4233 30.3556 32.1972 30.6256 31.782 L 30.6744 31.708 C 31.1032 31.0579 30.9242 30.1838 30.2746 29.755 Z" stroke-linecap="round"/>
</g>
		<g transform="matrix(1 0 0 1 -6.1077 7.2697)">
<path style="stroke: none; stroke-width: 1; stroke-dasharray: none; stroke-linecap: butt; stroke-dashoffset: 0; stroke-linejoin: miter; stroke-miterlimit: 4; is-custom-font: none; font-file-url: none; fill: rgb(0,0,3); fill-rule: nonzero; opacity: 1;" transform=" translate(-27.3922, -41.2697)" d="M 27.0302 41.2939 C 26.9544 39.5705 27.5104 37.497 28.6832 35.1307 C 29.0288 34.4333 28.7436 33.5877 28.0463 33.2421 C 27.3491 32.8964 26.5033 33.1818 26.1577 33.8791 C 24.771 36.677 24.1171 39.2132 24.2142 41.4178 C 24.3337 44.1384 25.6784 46.7118 28.2106 49.0669 C 28.482 49.3195 28.8263 49.4442 29.1701 49.4442 C 29.5479 49.4442 29.9246 49.293 30.2024 48.9945 C 30.7325 48.4247 30.7001 47.5327 30.1299 47.0027 C 28.1591 45.1695 27.116 43.2488 27.0302 41.2939 Z" stroke-linecap="round"/>
</g>
</g>
</g>
<g transform="matrix(1 0 0 1 50.5 50.5)" id="811912">
<circle style="stroke: none; stroke-width: 1; stroke-dasharray: none; stroke-linecap: butt; stroke-dashoffset: 0; stroke-linejoin: miter; stroke-miterlimit: 4; is-custom-font: none; font-file-url: none; fill: rgb(155,81,224); fill-rule: nonzero; opacity: 0.1;" vector-effect="non-scaling-stroke" cx="0" cy="0" r="50"/>
</g>
</svg>