<svg width="457" height="161" viewBox="0 0 457 161" fill="none" xmlns="http://www.w3.org/2000/svg">
<path d="M42.409 67.815C42.409 66.1581 43.7521 64.815 45.409 64.815H59.011C60.6679 64.815 62.011 66.1581 62.011 67.815V142.522C62.011 144.179 60.6679 145.522 59.011 145.522H45.409C43.7521 145.522 42.409 144.179 42.409 142.522V67.815Z" fill="#F1D379"/>
<path d="M115.095 147.216C102.592 147.216 92.9117 143.828 86.055 137.052C79.1984 130.276 75.77 119.668 75.77 105.229C75.77 90.951 79.2387 80.3433 86.176 73.406C93.1134 66.4687 102.753 63 115.095 63C124.219 63 133.201 64.7267 142.043 68.1802C143.169 68.6201 143.893 69.7159 143.893 70.9251V81.7333C143.893 83.994 141.485 85.4456 139.453 84.4553C135.797 82.6742 132.518 81.2901 129.615 80.303C125.662 78.9317 121.629 78.246 117.515 78.246C110.174 78.246 104.689 80.303 101.059 84.417C97.5097 88.4503 95.735 95.3473 95.735 105.108C95.735 114.707 97.55 121.604 101.18 125.799C104.81 129.913 109.973 131.97 116.668 131.97C120.466 131.97 123.597 131.559 126.059 130.737C127.149 130.373 127.8 129.304 127.8 128.155V118.756C127.8 117.099 126.457 115.756 124.8 115.756H117.49C115.833 115.756 114.49 114.413 114.49 112.756V103.51C114.49 101.853 115.833 100.51 117.49 100.51H144.402C146.059 100.51 147.402 101.853 147.402 103.51V136.736C147.402 137.827 146.811 138.837 145.845 139.344C135.85 144.592 125.6 147.216 115.095 147.216Z" fill="#F1D379"/>
<path d="M232.013 64.815C233.669 64.815 235.013 66.1581 235.013 67.815V142.522C235.013 144.179 233.67 145.522 232.013 145.522H221.732C220.798 145.522 219.918 145.087 219.35 144.346L188.001 103.421C186.257 101.145 182.62 102.378 182.62 105.246V142.522C182.62 144.179 181.277 145.522 179.62 145.522H167.591C165.934 145.522 164.591 144.179 164.591 142.522V67.815C164.591 66.1581 165.934 64.815 167.591 64.815H179.78C180.729 64.815 181.622 65.264 182.188 66.0257L211.576 105.574C213.299 107.894 216.984 106.675 216.984 103.785V67.815C216.984 66.1581 218.327 64.815 219.984 64.815H232.013Z" fill="#F1D379"/>
<path d="M252.15 67.815C252.15 66.1581 253.493 64.815 255.15 64.815H268.752C270.409 64.815 271.752 66.1581 271.752 67.815V142.522C271.752 144.179 270.409 145.522 268.752 145.522H255.15C253.493 145.522 252.15 144.179 252.15 142.522V67.815Z" fill="#F1D379"/>
<path d="M305.839 82.94C305.839 81.2831 304.496 79.94 302.839 79.94H286.212C284.555 79.94 283.212 78.5969 283.212 76.94V67.815C283.212 66.1581 284.555 64.815 286.212 64.815H345.431C347.088 64.815 348.431 66.1581 348.431 67.815V76.94C348.431 78.5969 347.088 79.94 345.431 79.94H328.441C326.784 79.94 325.441 81.2831 325.441 82.94V142.522C325.441 144.179 324.098 145.522 322.441 145.522H308.839C307.182 145.522 305.839 144.179 305.839 142.522V82.94Z" fill="#F1D379"/>
<path d="M359.916 67.815C359.916 66.1581 361.259 64.815 362.916 64.815H412.213C413.87 64.815 415.213 66.1581 415.213 67.815V76.94C415.213 78.5969 413.87 79.94 412.213 79.94H382.518C380.861 79.94 379.518 81.2831 379.518 82.94V94.485C379.518 96.1419 380.861 97.485 382.518 97.485H407.494C409.151 97.485 410.494 98.8282 410.494 100.485V109.731C410.494 111.388 409.151 112.731 407.494 112.731H382.518C380.861 112.731 379.518 114.074 379.518 115.731V127.397C379.518 129.054 380.861 130.397 382.518 130.397H412.213C413.87 130.397 415.213 131.74 415.213 133.397V142.522C415.213 144.179 413.87 145.522 412.213 145.522H362.916C361.259 145.522 359.916 144.179 359.916 142.522V67.815Z" fill="#F1D379"/>
<g filter="url(#filter0_d_10_18)">
<mask id="mask0_10_18" style="mask-type:alpha" maskUnits="userSpaceOnUse" x="42" y="63" width="373" height="85">
<path d="M42 68.293C42 66.6362 43.3431 65.293 45 65.293H58.602C60.2589 65.293 61.602 66.6362 61.602 68.293V143C61.602 144.657 60.2589 146 58.602 146H45C43.3431 146 42 144.657 42 143V68.293Z" fill="#F1D379"/>
<path d="M114.686 147.694C102.183 147.694 92.5027 144.306 85.646 137.53C78.7894 130.754 75.361 120.146 75.361 105.707C75.361 91.429 78.8297 80.8214 85.767 73.884C92.7044 66.9467 102.344 63.478 114.686 63.478C123.81 63.478 132.792 65.2048 141.634 68.6582C142.76 69.0981 143.484 70.194 143.484 71.4031V82.2113C143.484 84.472 141.076 85.9236 139.044 84.9333C135.388 83.1522 132.109 81.7681 129.206 80.781C125.253 79.4097 121.22 78.724 117.106 78.724C109.765 78.724 104.28 80.781 100.65 84.895C97.1007 88.9284 95.326 95.8254 95.326 105.586C95.326 115.185 97.141 122.082 100.771 126.277C104.401 130.391 109.564 132.448 116.259 132.448C120.057 132.448 123.188 132.037 125.65 131.215C126.74 130.851 127.391 129.782 127.391 128.633V119.234C127.391 117.577 126.048 116.234 124.391 116.234H117.081C115.424 116.234 114.081 114.891 114.081 113.234V103.988C114.081 102.331 115.424 100.988 117.081 100.988H143.993C145.65 100.988 146.993 102.331 146.993 103.988V137.214C146.993 138.305 146.402 139.315 145.436 139.822C135.441 145.07 125.191 147.694 114.686 147.694Z" fill="#F1D379"/>
<path d="M231.604 65.293C233.26 65.293 234.604 66.6362 234.604 68.293V143C234.604 144.657 233.261 146 231.604 146H221.323C220.389 146 219.509 145.565 218.941 144.824L187.592 103.899C185.848 101.623 182.211 102.856 182.211 105.724V143C182.211 144.657 180.868 146 179.211 146H167.182C165.525 146 164.182 144.657 164.182 143V68.293C164.182 66.6362 165.525 65.293 167.182 65.293H179.371C180.32 65.293 181.213 65.742 181.779 66.5037L211.167 106.052C212.89 108.372 216.575 107.153 216.575 104.263V68.293C216.575 66.6362 217.918 65.293 219.575 65.293H231.604Z" fill="#F1D379"/>
<path d="M251.741 68.293C251.741 66.6362 253.084 65.293 254.741 65.293H268.343C270 65.293 271.343 66.6362 271.343 68.293V143C271.343 144.657 270 146 268.343 146H254.741C253.084 146 251.741 144.657 251.741 143V68.293Z" fill="#F1D379"/>
<path d="M305.43 83.418C305.43 81.7612 304.087 80.418 302.43 80.418H285.803C284.146 80.418 282.803 79.0749 282.803 77.418V68.293C282.803 66.6362 284.146 65.293 285.803 65.293H345.022C346.679 65.293 348.022 66.6362 348.022 68.293V77.418C348.022 79.0749 346.679 80.418 345.022 80.418H328.032C326.375 80.418 325.032 81.7612 325.032 83.418V143C325.032 144.657 323.689 146 322.032 146H308.43C306.773 146 305.43 144.657 305.43 143V83.418Z" fill="#F1D379"/>
<path d="M359.507 68.293C359.507 66.6362 360.85 65.293 362.507 65.293H411.804C413.461 65.293 414.804 66.6362 414.804 68.293V77.418C414.804 79.0749 413.461 80.418 411.804 80.418H382.109C380.452 80.418 379.109 81.7612 379.109 83.418V94.963C379.109 96.6199 380.452 97.963 382.109 97.963H407.085C408.742 97.963 410.085 99.3062 410.085 100.963V110.209C410.085 111.866 408.742 113.209 407.085 113.209H382.109C380.452 113.209 379.109 114.552 379.109 116.209V127.875C379.109 129.532 380.452 130.875 382.109 130.875H411.804C413.461 130.875 414.804 132.218 414.804 133.875V143C414.804 144.657 413.461 146 411.804 146H362.507C360.85 146 359.507 144.657 359.507 143V68.293Z" fill="#F1D379"/>
</mask>
<g mask="url(#mask0_10_18)">
<g filter="url(#filter1_f_10_18)">
<path d="M66.409 99.5C37.209 95.5 22.2423 115.833 18.409 126.5V155.5L127.909 163H431.909L439.409 108.5L413.909 83.5C400.409 91.8334 372.509 108.5 368.909 108.5C364.409 108.5 334.909 108.5 311.909 92.5001C288.909 76.5001 268.909 99.5 246.409 108.5C223.909 117.5 221.909 99.5 191.909 99.5C161.909 99.5 163.409 115 135.409 122.5C107.409 130 102.909 104.5 66.409 99.5Z" fill="url(#paint0_linear_10_18)"/>
<path d="M66.409 99.5C37.209 95.5 22.2423 115.833 18.409 126.5V155.5L127.909 163H431.909L439.409 108.5L413.909 83.5C400.409 91.8334 372.509 108.5 368.909 108.5C364.409 108.5 334.909 108.5 311.909 92.5001C288.909 76.5001 268.909 99.5 246.409 108.5C223.909 117.5 221.909 99.5 191.909 99.5C161.909 99.5 163.409 115 135.409 122.5C107.409 130 102.909 104.5 66.409 99.5Z" stroke="black"/>
</g>
</g>
</g>
<defs>
<filter id="filter0_d_10_18" x="0" y="0.868896" width="456.804" height="148.825" filterUnits="userSpaceOnUse" color-interpolation-filters="sRGB">
<feFlood flood-opacity="0" result="BackgroundImageFix"/>
<feColorMatrix in="SourceAlpha" type="matrix" values="0 0 0 0 0 0 0 0 0 0 0 0 0 0 0 0 0 0 127 0" result="hardAlpha"/>
<feOffset dy="-40"/>
<feGaussianBlur stdDeviation="21"/>
<feComposite in2="hardAlpha" operator="out"/>
<feColorMatrix type="matrix" values="0 0 0 0 1 0 0 0 0 0.392157 0 0 0 0 0.0392157 0 0 0 1 0"/>
<feBlend mode="normal" in2="BackgroundImageFix" result="effect1_dropShadow_10_18"/>
<feBlend mode="normal" in="SourceGraphic" in2="effect1_dropShadow_10_18" result="shape"/>
</filter>
<filter id="filter1_f_10_18" x="4.909" y="69.8689" width="448.03" height="106.631" filterUnits="userSpaceOnUse" color-interpolation-filters="sRGB">
<feFlood flood-opacity="0" result="BackgroundImageFix"/>
<feBlend mode="normal" in="SourceGraphic" in2="BackgroundImageFix" result="shape"/>
<feGaussianBlur stdDeviation="6.5" result="effect1_foregroundBlur_10_18"/>
</filter>
<linearGradient id="paint0_linear_10_18" x1="229.409" y1="95.5" x2="229.409" y2="150.5" gradientUnits="userSpaceOnUse">
<stop stop-color="#EF7343"/>
<stop offset="1" stop-color="#EB4634"/>
</linearGradient>
</defs>
</svg>
