<svg width="28" height="28" viewBox="0 0 28 28" fill="none" xmlns="http://www.w3.org/2000/svg">
<path d="M14.116 10.2323C12.2166 10.2323 10.6665 11.8116 10.6665 13.7468C10.6665 15.682 12.2166 17.2613 14.116 17.2613C16.0154 17.2613 17.5654 15.682 17.5654 13.7468C17.5654 11.8116 16.0154 10.2323 14.116 10.2323ZM24.4618 13.7468C24.4618 12.2915 24.4748 10.8493 24.3945 9.39657C24.3143 7.7092 23.9365 6.21166 22.7254 4.97777C21.5118 3.74125 20.0445 3.35895 18.3884 3.27722C16.9599 3.19549 15.5444 3.20867 14.1186 3.20867C12.6901 3.20867 11.2746 3.19549 9.84875 3.27722C8.19259 3.35895 6.72274 3.74388 5.51167 4.97777C4.29801 6.2143 3.92279 7.7092 3.84257 9.39657C3.76235 10.8519 3.77529 12.2941 3.77529 13.7468C3.77529 15.1995 3.76235 16.6443 3.84257 18.0971C3.92279 19.7844 4.3006 21.282 5.51167 22.5159C6.72533 23.7524 8.19259 24.1347 9.84875 24.2164C11.2772 24.2981 12.6927 24.285 14.1186 24.285C15.547 24.285 16.9625 24.2981 18.3884 24.2164C20.0445 24.1347 21.5144 23.7498 22.7254 22.5159C23.9391 21.2793 24.3143 19.7844 24.3945 18.0971C24.4774 16.6443 24.4618 15.2022 24.4618 13.7468ZM14.116 19.1543C11.1789 19.1543 8.80848 16.7393 8.80848 13.7468C8.80848 10.7544 11.1789 8.33933 14.116 8.33933C17.0531 8.33933 19.4235 10.7544 19.4235 13.7468C19.4235 16.7393 17.0531 19.1543 14.116 19.1543ZM19.6408 9.38075C18.9551 9.38075 18.4013 8.81653 18.4013 8.11786C18.4013 7.41918 18.9551 6.85497 19.6408 6.85497C20.3266 6.85497 20.8804 7.41918 20.8804 8.11786C20.8806 8.28376 20.8486 8.44808 20.7864 8.60139C20.7242 8.75471 20.6329 8.89401 20.5178 9.01132C20.4026 9.12863 20.2659 9.22165 20.1154 9.28504C19.9649 9.34843 19.8037 9.38096 19.6408 9.38075Z" fill="white"/>
</svg>
