<svg width="54" height="55" viewBox="0 0 54 55" fill="none" xmlns="http://www.w3.org/2000/svg">
<path fill-rule="evenodd" clip-rule="evenodd" d="M35.6214 4.99829C41.1855 4.99829 45.3811 9.62367 45.3811 15.7574V27.4494C45.3811 30.5886 44.2917 33.4247 42.3117 35.4369C40.5355 37.2398 38.2313 38.1948 35.6481 38.1948H19.1847C16.6065 38.1948 14.304 37.2415 12.5261 35.4369C10.5461 33.4247 9.45668 30.5886 9.45668 27.4494V15.7574C9.45668 9.62367 13.6523 4.99829 19.2164 4.99829H35.6214ZM35.6214 7.55187H19.2164C15.0141 7.55187 11.963 11.0026 11.963 15.7574V27.4494C11.963 29.9059 12.7918 32.1003 14.2956 33.6273C15.5922 34.9467 17.2849 35.6412 19.1897 35.6412H35.6214C35.6247 35.6378 35.6381 35.6412 35.6481 35.6412C37.5546 35.6412 39.2456 34.9467 40.5422 33.6273C42.0477 32.1003 42.8748 29.9059 42.8748 27.4494V15.7574C42.8748 11.0026 39.8237 7.55187 35.6214 7.55187ZM38.2547 15.4319C38.6908 15.9783 38.609 16.7819 38.0726 17.2279L30.6471 23.3769C29.708 24.1362 28.5852 24.5158 27.464 24.5158C26.3462 24.5158 25.2317 24.1396 24.2993 23.3871L16.8053 17.2313C16.2656 16.7887 16.1821 15.9834 16.6148 15.4353C17.0509 14.8888 17.8396 14.802 18.3776 15.2429L25.865 21.3919C26.8057 22.1512 28.1307 22.1512 29.0781 21.3851L36.4902 15.2463C37.0283 14.7986 37.8169 14.8837 38.2547 15.4319Z" fill="#FFFFFF"/>
</svg>
