<svg width="17" height="17" viewBox="0 0 17 17" fill="none" xmlns="http://www.w3.org/2000/svg">
<g clip-path="url(#clip0_60_1219)">
<path d="M8.50006 0.873291C4.08903 0.873291 0.500061 4.46226 0.500061 8.87329C0.500061 13.2843 4.08903 16.8733 8.50006 16.8733C12.9111 16.8733 16.5001 13.2843 16.5001 8.87329C16.5001 4.46226 12.9111 0.873291 8.50006 0.873291ZM12.9712 6.76803L7.85846 11.8407C7.55771 12.1415 7.0765 12.1615 6.7557 11.8608L4.04893 9.39459C3.72813 9.09384 3.70808 8.59259 3.98878 8.27179C4.28953 7.95098 4.79079 7.93094 5.11159 8.23169L7.25695 10.1966L11.8284 5.62517C12.1492 5.30437 12.6504 5.30437 12.9712 5.62517C13.292 5.94597 13.292 6.44723 12.9712 6.76803Z" fill="white"/>
</g>
<defs>
<clipPath id="clip0_60_1219">
<rect width="16" height="16" fill="white" transform="translate(0.500061 0.873291)"/>
</clipPath>
</defs>
</svg>
