<svg width="27" height="28" viewBox="0 0 27 28" fill="none" xmlns="http://www.w3.org/2000/svg">
<g clip-path="url(#clip0_71_10)">
<path d="M26.475 5.80274C25.553 6.21896 24.5626 6.50018 23.5215 6.6273C24.5958 5.97237 25.3995 4.94158 25.7827 3.72727C24.7734 4.33809 23.6687 4.76804 22.5167 4.99843C21.7421 4.15571 20.716 3.59715 19.5978 3.40946C18.4796 3.22176 17.3319 3.41544 16.3329 3.96042C15.3338 4.50539 14.5393 5.37118 14.0727 6.42336C13.606 7.47553 13.4934 8.65523 13.7523 9.7793C11.7071 9.67468 9.70642 9.1331 7.88 8.1897C6.05358 7.24629 4.44226 5.92216 3.15063 4.30323C2.70898 5.07942 2.45504 5.97935 2.45504 6.93777C2.45455 7.80058 2.66309 8.65016 3.06216 9.41116C3.46124 10.1721 4.03851 10.821 4.74275 11.3002C3.92602 11.2737 3.1273 11.0489 2.41308 10.6444V10.7119C2.413 11.922 2.82385 13.0948 3.57591 14.0315C4.32798 14.9681 5.37494 15.6108 6.53914 15.8505C5.78148 16.0594 4.98714 16.0901 4.21609 15.9404C4.54456 16.9817 5.18439 17.8922 6.04601 18.5445C6.90763 19.1969 7.9479 19.5584 9.02118 19.5784C7.19922 21.0356 4.9491 21.8261 2.6328 21.8226C2.22249 21.8227 1.81253 21.7983 1.40503 21.7495C3.75621 23.2897 6.49315 24.1071 9.28838 24.1039C18.7506 24.1039 23.9234 16.1193 23.9234 9.19435C23.9234 8.96937 23.9178 8.74213 23.9079 8.51715C24.9141 7.77581 25.7826 6.85779 26.4728 5.80611L26.475 5.80274Z" fill="white"/>
</g>
<defs>
<clipPath id="clip0_71_10">
<rect width="26.4986" height="26.9979" fill="white" transform="translate(0.369926 0.248413)"/>
</clipPath>
</defs>
</svg>
