<svg width="27" height="28" viewBox="0 0 27 28" fill="none" xmlns="http://www.w3.org/2000/svg">
<path d="M13.6176 21.6343H13.5955C13.527 21.6343 6.67822 21.6208 4.95029 21.1428C4.4834 21.0146 4.05775 20.7638 3.71594 20.4153C3.37413 20.0669 3.12815 19.633 3.00264 19.1573C2.69192 17.3713 2.54188 15.5602 2.55437 13.7465C2.54635 11.9297 2.70045 10.116 3.01478 8.32775C3.14384 7.85121 3.39095 7.41646 3.7324 7.06523C4.07385 6.71401 4.49817 6.45809 4.96464 6.32204C6.6451 5.87207 13.3051 5.87207 13.5877 5.87207H13.6109C13.6805 5.87207 20.547 5.88557 22.2572 6.36366C23.2057 6.62576 23.9465 7.38058 24.2027 8.34688C24.5229 10.14 24.6741 11.959 24.652 13.7813C24.6598 15.5958 24.5053 17.4073 24.1905 19.1933C24.0634 19.6685 23.8164 20.1016 23.4742 20.4495C23.1319 20.7974 22.7063 21.048 22.2396 21.1765C20.5613 21.6298 13.9002 21.6343 13.6176 21.6343ZM11.4093 10.3773L11.4038 17.1268L17.1584 13.7521L11.4093 10.3773Z" fill="white"/>
</svg>
